<!--?xml version="1.0" encoding="utf-8"?-->
<!-- Generator: Adobe Illustrator 18.1.1, SVG Export Plug-In . SVG Version: 6.00 Build 0)  -->

<svg version="1.1" id="_x32_" xmlns="http://www.w3.org/2000/svg" xmlns:xlink="http://www.w3.org/1999/xlink" x="0px" y="0px" viewBox="0 0 512 512" style="width: 256px; height: 256px; opacity: 1;" xml:space="preserve">
<style type="text/css">
	.st0{fill:#4B4B4B;}
</style>
<g>
	<path class="st0" d="M229.634,183.266c0-5.391-4.368-9.766-9.765-9.766c-5.391,0-9.765,4.375-9.765,9.766s4.374,9.765,9.765,9.765
		C225.266,193.031,229.634,188.656,229.634,183.266z" style="fill: rgb(255, 170, 68);"></path>
	<ellipse class="st0" cx="292.125" cy="183.265" rx="9.759" ry="9.765" style="fill: rgb(255, 170, 68);"></ellipse>
	<path class="st0" d="M358.943,157.488c-4.869-22.935-17.149-43.134-34.192-57.969c-18.634-16.2-43.02-26.032-69.654-26.032
		c-26.581,0-50.94,9.798-69.56,25.958c-17.15,14.882-29.483,35.182-34.332,58.237c-7.07,0.923-13.444,4.207-18.234,8.989
		c-5.732,5.733-9.29,13.712-9.29,22.46c0,8.729,3.558,16.715,9.29,22.44c5.726,5.725,13.712,9.284,22.454,9.284
		c0.602,0,1.19-0.014,1.772-0.04c4.514,10.715,10.748,20.54,18.333,29.135l-1.204,0.89L275.39,387.065l11.765-8.735l-19.804-26.688
		l65.393-96.662l-1.679-1.137c9.27-9.504,16.782-20.735,21.992-33.188c1.144,0.127,2.328,0.201,3.518,0.201
		c8.749,0,16.708-3.559,22.44-9.284c5.725-5.725,9.304-13.711,9.304-22.44c0-8.748-3.578-16.728-9.304-22.46
		C373.818,161.474,366.755,158.063,358.943,157.488z M243.385,88.897c3.833-0.488,7.739-0.756,11.712-0.756
		c5.384,0,10.648,0.475,15.771,1.364c0.529,0.609,1.084,1.318,1.632,2.14c2.314,3.512,4.642,9.023,4.655,17.745
		c0.007,6.601-1.384,15.07-5.297,25.724c-12.36-9.939-19.404-19.096-23.39-26.64c-4.341-8.227-5.116-14.581-5.123-18.26
		C243.346,89.72,243.365,89.285,243.385,88.897z M234.564,90.455c0.027,4.977,1.184,12.762,6.14,22.119
		c2.207,4.194,5.177,8.695,9.11,13.404c-3.932-1.585-7.879-3.063-11.571-4.628c-6.381-2.682-11.966-5.685-15.758-9.685
		c-1.906-2-3.398-4.247-4.468-6.956c-0.869-2.254-1.438-4.882-1.612-7.993C222.156,94.027,228.23,91.907,234.564,90.455z
		 M368.655,201.198c-3.117,3.103-7.33,5.01-12.08,5.01c-1.966,0-3.839-0.355-5.659-0.977l-6.942-2.448l-2.415,6.943
		c-6.214,17.885-17.825,33.275-32.874,44.171c-3.946,2.856-8.12,5.411-12.501,7.604c0.308,2.007,0.455,4.034,0.455,6.094
		c0,3.558-0.455,7.043-1.331,10.401c2.034-0.836,4.027-1.733,6-2.696L258.1,339.175l-46.439-62.592
		c1.726,0.776,3.465,1.519,5.238,2.201c-1.024-3.586-1.552-7.351-1.552-11.19c0-1.772,0.114-3.545,0.355-5.27
		c-4.923-2.348-9.598-5.124-13.98-8.274c-15.029-10.815-26.654-26.092-32.94-43.857l-2.268-6.421l-6.568,1.806
		c-1.498,0.408-2.996,0.629-4.521,0.629c-4.749,0-8.976-1.906-12.086-5.01c-3.103-3.104-5.01-7.337-5.01-12.066
		c0-4.749,1.906-8.983,5.01-12.086c3.11-3.11,7.337-5.01,12.086-5.01c0.294,0,0.736,0.034,1.351,0.074l6.809,0.528l1.01-6.736
		c3.311-22.005,14.474-41.441,30.54-55.387c4.02-3.478,8.341-6.622,12.916-9.37c0.394,2.482,1.002,4.809,1.859,6.949
		c1.351,3.391,3.244,6.327,5.484,8.842c3.933,4.401,8.856,7.498,13.993,10.039c7.705,3.793,16.039,6.415,23.048,9.685
		c3.498,1.626,6.648,3.391,9.23,5.432c2.595,2.04,4.615,4.307,6.053,7.07c0.776,1.492,2.32,2.401,4.006,2.368
		c1.68-0.04,3.184-1.023,3.886-2.555c7.591-16.461,10.334-29.41,10.334-39.583c0.014-6.936-1.297-12.554-3.137-16.969
		c12.046,3.819,23.002,10.046,32.326,18.153c16.086,13.993,27.222,33.469,30.5,55.528l1.084,7.264l7.263-1.11
		c0.97-0.147,1.819-0.221,2.595-0.221c4.749,0,8.963,1.9,12.08,5.01c3.11,3.103,5.003,7.337,5.016,12.086
		C373.658,193.86,371.765,198.094,368.655,201.198z" style="fill: rgb(255, 170, 68);"></path>
	<path class="st0" d="M255.994,235.744c-8.762,0-16.782,3.579-22.52,9.33c-5.752,5.739-9.33,13.758-9.33,22.527
		c0,8.768,3.578,16.782,9.33,22.526c5.739,5.753,13.758,9.331,22.52,9.324c8.775,0.006,16.788-3.572,22.526-9.324
		c5.759-5.745,9.337-13.758,9.337-22.526c0-8.769-3.578-16.788-9.337-22.527C272.781,239.322,264.768,235.744,255.994,235.744z
		 M270.815,273.855c-1.21,2.876-3.264,5.344-5.832,7.082c-2.575,1.733-5.632,2.736-8.989,2.736c-2.234,0-4.334-0.449-6.247-1.258
		c-2.876-1.211-5.351-3.264-7.09-5.833c-1.726-2.575-2.729-5.625-2.736-8.982c0-2.248,0.448-4.341,1.258-6.261
		c1.217-2.869,3.27-5.344,5.839-7.083c2.568-1.732,5.625-2.736,8.976-2.736c2.247,0,4.341,0.448,6.26,1.258
		c2.876,1.217,5.351,3.27,7.083,5.839c1.732,2.568,2.736,5.625,2.736,8.983C272.072,269.842,271.631,271.935,270.815,273.855z" style="fill: rgb(255, 170, 68);"></path>
	<path class="st0" d="M256,216.641c-21.637,0-39.187,10.488-39.187,23.437c0,3.86,1.572,7.504,4.36,10.735
		c1.679-2.789,3.732-5.391,6.087-7.752c7.665-7.678,17.871-11.906,28.727-11.906c10.895,0,21.089,4.227,28.767,11.918
		c2.354,2.348,4.388,4.95,6.073,7.739c2.783-3.231,4.354-6.876,4.354-10.735C295.181,227.129,277.651,216.641,256,216.641z" style="fill: rgb(255, 170, 68);"></path>
	<path class="st0" d="M421.133,175.968l-8.776,0.448l8.776-0.455c-1.485-29.53-11.444-55.481-25.624-77.453
		c-10.635-16.494-23.63-30.808-37.322-43.041c-20.547-18.346-42.653-32.018-61.1-41.208c-9.231-4.595-17.538-8.066-24.387-10.434
		c-3.424-1.191-6.488-2.107-9.19-2.756c-1.351-0.321-2.622-0.576-3.846-0.762C258.442,0.127,257.271,0,256,0
		c-1.13,0-2.173,0.1-3.257,0.247c-2.087,0.294-4.314,0.796-6.836,1.499c-4.708,1.304-10.407,3.317-16.935,6.053
		c-11.398,4.782-25.283,11.791-39.864,21.068c-21.871,13.926-45.354,32.948-64.015,57.401
		c-9.324,12.226-17.437,25.818-23.444,40.793c-6.006,14.962-9.899,31.309-10.782,48.9c-0.428,8.388-0.662,17.604-0.662,27.476
		c0,27.556,1.84,60.25,6.628,93.92c3.585,25.256,8.842,51.06,16.266,75.674c5.578,18.46,12.374,36.252,20.668,52.639
		c12.427,24.574,28.226,46.064,48.452,61.574c10.106,7.746,21.316,13.966,33.636,18.213c12.314,4.261,25.724,6.548,40.144,6.542
		c17.09,0.006,32.754-3.211,46.874-9.103c12.354-5.15,23.503-12.327,33.489-21.035c17.464-15.257,31.383-35.149,42.559-57.555
		c16.741-33.616,27.363-73.005,33.918-111.906c6.534-38.9,8.949-77.313,8.956-108.956
		C421.795,193.566,421.554,184.349,421.133,175.968z M397.763,294.884c-3.478,24.534-8.581,49.515-15.691,73.065
		c-5.338,17.664-11.799,34.527-19.524,49.79c-11.592,22.922-25.992,42.185-43.455,55.555c-8.742,6.689-18.246,11.946-28.694,15.551
		c-10.434,3.605-21.824,5.578-34.4,5.578c-14.908-0.007-28.138-2.769-40.111-7.752c-10.467-4.368-19.985-10.454-28.694-18.059
		c-15.236-13.277-27.971-31.235-38.378-52.144c-15.645-31.356-25.992-69.252-32.326-106.983
		c-6.341-37.723-8.716-75.293-8.709-106.046c0-9.592,0.234-18.527,0.636-26.58c1.331-26.098,10.04-48.933,22.848-68.825
		c9.598-14.902,21.524-28.091,34.259-39.462c19.082-17.056,39.984-29.998,57.227-38.58c8.608-4.288,16.307-7.491,22.3-9.564
		c2.996-1.03,5.565-1.792,7.518-2.254c0.976-0.234,1.792-0.394,2.407-0.488c0.602-0.094,1.004-0.114,1.023-0.107
		c0.007-0.007,0.335,0.013,0.823,0.08c0.976,0.134,2.582,0.468,4.568,1.023c3.739,1.037,8.869,2.816,14.829,5.324
		c10.46,4.388,23.544,10.976,37.242,19.691c20.56,13.075,42.485,30.954,59.468,53.233c8.501,11.137,15.765,23.37,21.102,36.674
		c5.338,13.31,8.755,27.684,9.551,43.254c0.401,8.053,0.636,16.989,0.636,26.587C404.218,230.219,402.425,262.163,397.763,294.884z" style="fill: rgb(255, 170, 68);"></path>
</g>
</svg>
